<?xml version="1.0" encoding="UTF-8"?>
<svg id="Layer_1" xmlns="http://www.w3.org/2000/svg" version="1.1" viewBox="0 0 8036.93 1272.71">
  <!-- Generator: Adobe Illustrator 30.2.1, SVG Export Plug-In . SVG Version: 2.1.1 Build 1)  -->
  <defs>
    <style>
      .st0 {
        fill: #fff;
      }
    </style>
  </defs>
  <polygon class="st0" points="7907.6 771.38 7985.4 925.83 7349.76 927.12 7349.79 267.06 7505.98 267.1 7505.51 418.84 7869.9 419.23 7803.89 575.32 7506.1 575.62 7505.95 773.65 7907.6 771.38"/>
  <polygon class="st0" points="7427.92 210.42 7349.25 53.58 7985.91 52.8 7916.57 208.57 7427.92 210.42"/>
  <polygon class="st0" points="203.06 1045.46 51.81 935.33 51.02 49.02 204.08 50.34 203.5 417.2 593.91 414.3 594 48.84 751.74 47.82 748.61 1041.93 594 921.58 595.99 569.37 201.27 571.61 203.06 1045.46"/>
  <path class="st0" d="M4449.67,918.32l-196.19,2.53-150.56.76-.03-157.4,323.81-.02c45.87,0,81.37-28.86,93.36-72.65,7.61-27.77,6.17-59.77-12.49-84.2-65.03-85.13-192.56-11.83-318.57-74.93-141.31-70.76-188.64-236.64-109.91-367.49,44.78-74.43,127.22-113.1,213.07-116.54l41.99-1.68,321.27.1.28,158.34s-318.5.98-374.71,4.09c-49.6,2.75-82.74,43.71-82.77,91.06-.03,54.73,42.69,97.07,98.44,99.26,51.83,2.04,101.99.87,154.02,6.92,84.51,9.83,155.12,56.35,198.57,129.5,45.28,76.23,39.76,189.03-8.09,264.58-19.32,30.5-44.62,58.73-75.79,77.85-33.48,20.54-73.87,39.38-115.7,39.92Z"/>
  <path class="st0" d="M5985.48,593.34l126.14-2.61-103.62-240.02c-14.66,27.91-256.51,584.29-256.51,584.29l-168.63-1.26,307.81-689.65s93.68-199.32,117.34-199.32,119.41,199.48,119.41,199.48l300.04,688.21-171.25,2.12-82.98-188.77-258.31-.07,70.59-152.4Z"/>
  <path class="st0" d="M3542.59,605.69c-40-61.33-39.29-61.36-39.29-61.36v-98.09l124.02.11c35.53-.46,69.12-17.63,89.22-49.22,28.72-45.13,25.77-109.91-6.49-153.96-15.87-21.66-46.29-32.74-72.48-34.39-80.49-5.07-286.81-2.93-286.81-2.93l-81.23-157.29,260.52-1.02c38.26-.15,73.64-1.22,112.94,2.74,119.6,12.05,222.49,104.03,244.5,222.37,11.39,61.24,1.84,122.7-22.95,177.25-29.25,64.35-81.63,109.19-146,136.48l424.8,647.19-240.67-80.8-360.1-547.09Z"/>
  <path class="st0" d="M5025.78,710.4c39.03,50.38,94.22,74.88,157.17,79.65,75.83,5.75,149.64-25.48,206.36-81.21l87.48,72.27,36.58,28.87-59.86,48.51c-162.26,131.48-417.49,113.41-547.14-47.41-45.55-56.51-73.96-127.81-76.03-201.03-2.28-80.84-1.74-157.44.18-237.12,3.21-133.21,80.36-243.85,199.19-298.67,58.83-27.14,118.51-37.48,183.92-34.67,45.88,1.97,89.18,8.32,132.87,25.61,61.92,24.51,116.71,60.36,165.46,108.06l-122.65,104.37c-28.97-29.4-62.11-51.17-101.37-64.41-79.56-30.57-168.08-22.06-236.53,30.38-36.91,28.27-58.63,72.58-63.71,118.27-4.07,36.61-.7,165.14-.7,165.14.38,69.41-4.24,127.89,38.77,183.41Z"/>
  <path class="st0" d="M1304.96,561.84l-.75,358.07-156.98.26.89-355.9s-239.76-243.36-249.31-257.56l.24-258.35,155.53-.98.99,203.22,171.05,171.83c35.12-31.76,175.86-177.16,172.35-194.51l.13-178.63,158.03-1.19.11,252.2c-10.62,15.65-252.3,261.52-252.3,261.52Z"/>
  <polygon class="st0" points="3045.44 766.82 3123.24 921.27 2487.59 922.56 2487.62 262.49 2643.82 262.53 2643.35 414.28 3007.74 414.66 2941.73 570.75 2643.93 571.05 2643.78 769.09 3045.44 766.82"/>
  <path class="st0" d="M6782.01,474.03l129.04-1.87c39.85-.58,79.63-19.68,101.02-54.27,32.25-52.14,30.39-124.31-7.77-173.01-23.96-30.59-65.75-41.62-103.51-41.58l-249.51.23-92.73-156.84,331.85-1.92c94.08-.51,182.95,35.33,241.21,110.59,108.01,139.53,67.73,346.14-84.08,435.62-46.88,27.63-98.14,37.34-151.65,37.5l-115.54.33,1.66-154.79Z"/>
  <polygon class="st0" points="6714.78 945.67 6558.73 1075.63 6558.56 270.97 6714.82 271.22 6714.78 945.67"/>
  <polygon class="st0" points="3424.51 920.59 3269.54 920.01 3269.81 262.66 3425.4 262.09 3424.51 920.59"/>
  <polygon class="st0" points="2565.75 205.86 2487.09 49.01 3123.74 48.24 3054.4 204.01 2565.75 205.86"/>
  <g>
    <path class="st0" d="M1947.57,474.03l129.04-1.87c39.85-.58,79.63-19.68,101.02-54.27,32.25-52.14,30.39-124.31-7.77-173.01-23.96-30.59-65.75-41.62-103.51-41.58l-249.51.23-92.73-156.84,331.85-1.92c94.08-.51,182.95,35.33,241.21,110.59,108.01,139.53,67.73,346.14-84.08,435.62-46.88,27.63-98.14,37.34-151.65,37.5l-115.54.33,1.66-154.79Z"/>
    <polygon class="st0" points="1880.33 945.67 1724.28 1075.63 1724.11 270.97 1880.37 271.22 1880.33 945.67"/>
  </g>
</svg>
